<svg width="480" height="100" viewBox="0 0 480 100" fill="none" xmlns="http://www.w3.org/2000/svg">
<path d="M134.879 94H120.202V74.3149H134.422V76.6514H122.807V82.667H133.67V85.0034H122.807V91.6636H134.879V94ZM130.595 69.293L127.628 73.0662H125.64L127.426 69.293H130.595ZM145.607 82.0627C145.249 81.9553 144.735 81.9016 144.063 81.9016C142.774 81.9016 141.669 82.5775 140.747 83.9292V94H138.209V79.7532H140.747V81.7405C141.812 80.2008 143.047 79.4309 144.453 79.4309C144.811 79.4309 145.196 79.4667 145.607 79.5383V82.0627ZM152.899 94.0269C152.344 94.1343 151.739 94.188 151.086 94.188C150.048 94.188 149.287 94.0045 148.803 93.6375C148.32 93.2615 148.02 92.7826 147.904 92.2007C147.787 91.6188 147.729 90.8266 147.729 89.824V81.7405H145.97V79.7532H147.729V76.2083H150.253V79.7532H152.563V81.7405H150.253V89.9583C150.253 90.934 150.374 91.5562 150.616 91.8247C150.867 92.0843 151.207 92.2141 151.636 92.2141C152.075 92.2141 152.496 92.1783 152.899 92.1067V94.0269ZM161.076 94.3357C158.981 94.3357 157.299 93.6822 156.027 92.3752C154.756 91.0593 154.121 89.2287 154.121 86.8833C154.121 84.5558 154.734 82.7341 155.96 81.4182C157.196 80.0933 158.807 79.4309 160.794 79.4309C162.826 79.4309 164.447 80.0799 165.655 81.3779C166.872 82.6759 167.481 84.5111 167.481 86.8833V87.4875H156.752C156.86 89.1347 157.312 90.3566 158.109 91.1533C158.914 91.95 159.903 92.3484 161.076 92.3484C161.962 92.3484 162.759 92.1246 163.466 91.677C164.182 91.2205 164.558 90.5759 164.594 89.7434H167.213C167.016 91.2115 166.349 92.3439 165.212 93.1406C164.084 93.9373 162.705 94.3357 161.076 94.3357ZM164.809 85.5002C164.603 84.1306 164.142 83.1056 163.426 82.4253C162.71 81.745 161.833 81.4048 160.794 81.4048C159.783 81.4048 158.914 81.745 158.189 82.4253C157.464 83.0967 157.003 84.1217 156.806 85.5002H164.809ZM164.245 73.9792L161.278 77.7524H159.29L161.076 73.9792H164.245ZM182.104 94H179.083L174.45 86.7625L172.866 88.3335V94H170.328V74.3149H172.866V85.4734L178.358 79.7532H181.553L176.156 85.0571L182.104 94ZM190.134 94.3357C188.039 94.3357 186.356 93.6822 185.085 92.3752C183.814 91.0593 183.178 89.2287 183.178 86.8833C183.178 84.5558 183.791 82.7341 185.018 81.4182C186.253 80.0933 187.865 79.4309 189.852 79.4309C191.884 79.4309 193.504 80.0799 194.713 81.3779C195.93 82.6759 196.539 84.5111 196.539 86.8833V87.4875H185.81C185.917 89.1347 186.37 90.3566 187.166 91.1533C187.972 91.95 188.961 92.3484 190.134 92.3484C191.02 92.3484 191.817 92.1246 192.524 91.677C193.24 91.2205 193.616 90.5759 193.652 89.7434H196.27C196.073 91.2115 195.406 92.3439 194.27 93.1406C193.142 93.9373 191.763 94.3357 190.134 94.3357ZM193.867 85.5002C193.661 84.1306 193.2 83.1056 192.484 82.4253C191.767 81.745 190.89 81.4048 189.852 81.4048C188.84 81.4048 187.972 81.745 187.247 82.4253C186.522 83.0967 186.061 84.1217 185.864 85.5002H193.867ZM204.918 94.0269C204.363 94.1343 203.758 94.188 203.105 94.188C202.067 94.188 201.306 94.0045 200.822 93.6375C200.339 93.2615 200.039 92.7826 199.923 92.2007C199.806 91.6188 199.748 90.8266 199.748 89.824V81.7405H197.989V79.7532H199.748V76.2083H202.272V79.7532H204.582V81.7405H202.272V89.9583C202.272 90.934 202.393 91.5562 202.635 91.8247C202.886 92.0843 203.226 92.2141 203.656 92.2141C204.094 92.2141 204.515 92.1783 204.918 92.1067V94.0269ZM223.367 90.2537V87.0981H221.635C217.965 87.0981 216.13 88.0963 216.13 90.0925C216.13 90.8176 216.398 91.3771 216.936 91.771C217.473 92.1559 218.198 92.3484 219.111 92.3484C219.943 92.3484 220.749 92.1604 221.528 91.7844C222.307 91.4084 222.92 90.8982 223.367 90.2537ZM223.367 92.5364C222.078 93.7359 220.418 94.3357 218.386 94.3357C216.971 94.3357 215.808 93.9552 214.895 93.1943C213.981 92.4245 213.525 91.4353 213.525 90.2268C213.525 86.8967 216.394 85.2317 222.132 85.2317H223.367C223.367 84.2112 223.314 83.4727 223.206 83.0161C223.099 82.5506 222.799 82.1657 222.307 81.8613C221.814 81.557 221.031 81.4048 219.957 81.4048C217.701 81.4048 216.537 82.2104 216.466 83.8218H213.941C214.129 80.8945 216.179 79.4309 220.091 79.4309C221.917 79.4309 223.341 79.7935 224.361 80.5186C225.382 81.2437 225.892 82.667 225.892 84.7886V94H223.367V92.5364ZM238.675 89.9045V83.137C237.583 81.9822 236.334 81.4048 234.929 81.4048C233.846 81.4048 232.977 81.8748 232.324 82.8147C231.679 83.7457 231.357 85.1377 231.357 86.9907C231.357 88.7453 231.661 90.0791 232.27 90.9922C232.888 91.8963 233.738 92.3484 234.821 92.3484C236.236 92.3484 237.52 91.5338 238.675 89.9045ZM238.675 92.2947C237.547 93.6554 236.191 94.3357 234.606 94.3357C232.744 94.3357 231.303 93.6733 230.283 92.3484C229.262 91.0235 228.752 89.2376 228.752 86.9907C228.752 84.6632 229.32 82.8236 230.457 81.4719C231.603 80.1112 233.04 79.4309 234.768 79.4309C236.307 79.4309 237.61 79.9054 238.675 80.8542V74.3149H241.199V94H238.675V92.2947ZM253.983 92.1873C252.72 93.6195 251.302 94.3357 249.726 94.3357C246.512 94.3357 244.906 92.5811 244.906 89.072V79.7532H247.443V88.9646C247.443 90.1283 247.649 90.9653 248.061 91.4756C248.473 91.9858 249.153 92.241 250.102 92.241C251.516 92.241 252.81 91.4801 253.983 89.9583V79.7532H256.507V94H253.983V92.1873ZM262.805 81.5659C264.067 80.1426 265.486 79.4309 267.061 79.4309C270.275 79.4309 271.882 81.181 271.882 84.6812V94H269.344V84.7886C269.344 83.6248 269.134 82.7878 268.713 82.2776C268.301 81.7673 267.621 81.5122 266.672 81.5122C265.383 81.5122 264.094 82.2731 262.805 83.7949V94H260.267V79.7532H262.805V81.5659ZM287.351 94H284.329L279.697 86.7625L278.112 88.3335V94H275.574V74.3149H278.112V85.4734L283.604 79.7532H286.8L281.402 85.0571L287.351 94ZM305.653 90.2537V87.0981H303.92C300.25 87.0981 298.415 88.0963 298.415 90.0925C298.415 90.8176 298.684 91.3771 299.221 91.771C299.758 92.1559 300.483 92.3484 301.396 92.3484C302.229 92.3484 303.034 92.1604 303.813 91.7844C304.592 91.4084 305.205 90.8982 305.653 90.2537ZM305.653 92.5364C304.364 93.7359 302.703 94.3357 300.671 94.3357C299.257 94.3357 298.093 93.9552 297.18 93.1943C296.267 92.4245 295.81 91.4353 295.81 90.2268C295.81 86.8967 298.679 85.2317 304.417 85.2317H305.653C305.653 84.2112 305.599 83.4727 305.491 83.0161C305.384 82.5506 305.084 82.1657 304.592 81.8613C304.099 81.557 303.316 81.4048 302.242 81.4048C299.986 81.4048 298.822 82.2104 298.751 83.8218H296.226C296.414 80.8945 298.464 79.4309 302.376 79.4309C304.202 79.4309 305.626 79.7935 306.646 80.5186C307.667 81.2437 308.177 82.667 308.177 84.7886V94H305.653V92.5364ZM321.779 94.7654C321.779 96.8064 321.457 98.1447 320.812 98.7803C320.168 99.4248 319.268 99.7471 318.114 99.7471C317.424 99.7471 316.856 99.7023 316.408 99.6128V97.4644C316.892 97.5897 317.362 97.6523 317.818 97.6523C318.373 97.6523 318.749 97.4554 318.946 97.0615C319.143 96.6766 319.241 95.8933 319.241 94.7117V79.7532H321.779V94.7654ZM321.779 77.0542H319.241V74.3149H321.779V77.0542ZM334.549 92.1873C333.287 93.6195 331.868 94.3357 330.292 94.3357C327.079 94.3357 325.472 92.5811 325.472 89.072V79.7532H328.01V88.9646C328.01 90.1283 328.216 90.9653 328.627 91.4756C329.039 91.9858 329.72 92.241 330.668 92.241C332.083 92.241 333.376 91.4801 334.549 89.9583V79.7532H337.073V94H334.549V92.1873ZM346.365 94.0269C345.81 94.1343 345.206 94.188 344.553 94.188C343.514 94.188 342.753 94.0045 342.27 93.6375C341.787 93.2615 341.487 92.7826 341.37 92.2007C341.254 91.6188 341.196 90.8266 341.196 89.824V81.7405H339.437V79.7532H341.196V76.2083H343.72V79.7532H346.03V81.7405H343.72V89.9583C343.72 90.934 343.841 91.5562 344.083 91.8247C344.333 92.0843 344.674 92.2141 345.103 92.2141C345.542 92.2141 345.963 92.1783 346.365 92.1067V94.0269ZM354.019 94.0269C353.464 94.1343 352.86 94.188 352.207 94.188C351.168 94.188 350.407 94.0045 349.924 93.6375C349.44 93.2615 349.141 92.7826 349.024 92.2007C348.908 91.6188 348.85 90.8266 348.85 89.824V81.7405H347.091V79.7532H348.85V76.2083H351.374V79.7532H353.684V81.7405H351.374V89.9583C351.374 90.934 351.495 91.5562 351.737 91.8247C351.987 92.0843 352.327 92.2141 352.757 92.2141C353.196 92.2141 353.616 92.1783 354.019 92.1067V94.0269ZM365.164 90.2537V87.0981H363.432C359.762 87.0981 357.927 88.0963 357.927 90.0925C357.927 90.8176 358.195 91.3771 358.732 91.771C359.27 92.1559 359.995 92.3484 360.908 92.3484C361.74 92.3484 362.546 92.1604 363.325 91.7844C364.104 91.4084 364.717 90.8982 365.164 90.2537ZM365.164 92.5364C363.875 93.7359 362.215 94.3357 360.183 94.3357C358.768 94.3357 357.604 93.9552 356.691 93.1943C355.778 92.4245 355.322 91.4353 355.322 90.2268C355.322 86.8967 358.191 85.2317 363.929 85.2317H365.164C365.164 84.2112 365.111 83.4727 365.003 83.0161C364.896 82.5506 364.596 82.1657 364.104 81.8613C363.611 81.557 362.828 81.4048 361.754 81.4048C359.498 81.4048 358.334 82.2104 358.262 83.8218H355.738C355.926 80.8945 357.976 79.4309 361.888 79.4309C363.714 79.4309 365.137 79.7935 366.158 80.5186C367.178 81.2437 367.689 82.667 367.689 84.7886V94H365.164V92.5364ZM376.981 94.0269C376.426 94.1343 375.821 94.188 375.168 94.188C374.13 94.188 373.369 94.0045 372.885 93.6375C372.402 93.2615 372.102 92.7826 371.986 92.2007C371.869 91.6188 371.811 90.8266 371.811 89.824V81.7405H370.052V79.7532H371.811V76.2083H374.335V79.7532H376.645V81.7405H374.335V89.9583C374.335 90.934 374.456 91.5562 374.698 91.8247C374.949 92.0843 375.289 92.2141 375.719 92.2141C376.157 92.2141 376.578 92.1783 376.981 92.1067V94.0269ZM388.126 90.2537V87.0981H386.394C382.723 87.0981 380.888 88.0963 380.888 90.0925C380.888 90.8176 381.157 91.3771 381.694 91.771C382.231 92.1559 382.956 92.3484 383.869 92.3484C384.702 92.3484 385.507 92.1604 386.286 91.7844C387.065 91.4084 387.678 90.8982 388.126 90.2537ZM388.126 92.5364C386.837 93.7359 385.176 94.3357 383.144 94.3357C381.73 94.3357 380.566 93.9552 379.653 93.1943C378.74 92.4245 378.283 91.4353 378.283 90.2268C378.283 86.8967 381.152 85.2317 386.89 85.2317H388.126C388.126 84.2112 388.072 83.4727 387.965 83.0161C387.857 82.5506 387.557 82.1657 387.065 81.8613C386.573 81.557 385.789 81.4048 384.715 81.4048C382.459 81.4048 381.295 82.2104 381.224 83.8218H378.699C378.887 80.8945 380.937 79.4309 384.849 79.4309C386.676 79.4309 388.099 79.7935 389.119 80.5186C390.14 81.2437 390.65 82.667 390.65 84.7886V94H388.126V92.5364ZM388.327 73.9792L385.36 77.7524H383.372L385.158 73.9792H388.327ZM399.499 94.3357C395.605 94.3357 393.568 92.8049 393.389 89.7434H395.927C395.945 91.4801 397.127 92.3484 399.472 92.3484C400.52 92.3484 401.316 92.1335 401.862 91.7039C402.417 91.2652 402.695 90.7192 402.695 90.0657C402.695 89.4211 402.426 88.9691 401.889 88.7095C401.352 88.4409 400.242 88.0963 398.559 87.6755C396.885 87.2548 395.659 86.7848 394.88 86.2656C394.11 85.7464 393.725 84.8333 393.725 83.5264C393.725 82.3447 394.204 81.369 395.162 80.5991C396.129 79.8203 397.418 79.4309 399.029 79.4309C402.762 79.4309 404.669 80.7603 404.749 83.4189H402.225C402.135 82.0762 401.128 81.4048 399.204 81.4048C398.353 81.4048 397.646 81.5659 397.082 81.8882C396.527 82.2104 396.25 82.6804 396.25 83.2981C396.25 83.8531 396.464 84.2559 396.894 84.5066C397.324 84.7483 398.398 85.0795 400.117 85.5002C401.844 85.912 403.125 86.3954 403.957 86.9504C404.799 87.5055 405.219 88.4633 405.219 89.824C405.219 91.122 404.7 92.2007 403.662 93.0601C402.632 93.9105 401.245 94.3357 399.499 94.3357ZM413.934 79.4309C415.966 79.4309 417.586 80.0799 418.795 81.3779C420.012 82.6759 420.621 84.5111 420.621 86.8833C420.621 89.2466 420.012 91.0817 418.795 92.3887C417.586 93.6867 415.966 94.3357 413.934 94.3357C411.911 94.3357 410.29 93.6867 409.073 92.3887C407.865 91.0817 407.26 89.2466 407.26 86.8833C407.26 84.5111 407.865 82.6759 409.073 81.3779C410.29 80.0799 411.911 79.4309 413.934 79.4309ZM413.934 92.3484C415.142 92.3484 416.123 91.8918 416.875 90.9788C417.626 90.0567 418.002 88.6916 418.002 86.8833C418.002 85.0661 417.626 83.7009 416.875 82.7878C416.123 81.8658 415.142 81.4048 413.934 81.4048C412.725 81.4048 411.745 81.8658 410.993 82.7878C410.241 83.7009 409.865 85.0661 409.865 86.8833C409.865 88.6916 410.241 90.0567 410.993 90.9788C411.745 91.8918 412.725 92.3484 413.934 92.3484ZM435.244 94H432.222L427.59 86.7625L426.005 88.3335V94H423.468V74.3149H426.005V85.4734L431.497 79.7532H434.693L429.295 85.0571L435.244 94ZM439.755 81.5659C441.018 80.1426 442.436 79.4309 444.012 79.4309C447.226 79.4309 448.833 81.181 448.833 84.6812V94H446.295V84.7886C446.295 83.6248 446.084 82.7878 445.664 82.2776C445.252 81.7673 444.571 81.5122 443.623 81.5122C442.333 81.5122 441.044 82.2731 439.755 83.7949V94H437.218V74.3149H439.755V81.5659ZM458.299 79.4309C460.331 79.4309 461.951 80.0799 463.16 81.3779C464.377 82.6759 464.986 84.5111 464.986 86.8833C464.986 89.2466 464.377 91.0817 463.16 92.3887C461.951 93.6867 460.331 94.3357 458.299 94.3357C456.276 94.3357 454.656 93.6867 453.438 92.3887C452.23 91.0817 451.625 89.2466 451.625 86.8833C451.625 84.5111 452.23 82.6759 453.438 81.3779C454.656 80.0799 456.276 79.4309 458.299 79.4309ZM458.299 92.3484C459.508 92.3484 460.488 91.8918 461.24 90.9788C461.992 90.0567 462.368 88.6916 462.368 86.8833C462.368 85.0661 461.992 83.7009 461.24 82.7878C460.488 81.8658 459.508 81.4048 458.299 81.4048C457.091 81.4048 456.11 81.8658 455.358 82.7878C454.606 83.7009 454.23 85.0661 454.23 86.8833C454.23 88.6916 454.606 90.0567 455.358 90.9788C456.11 91.8918 457.091 92.3484 458.299 92.3484ZM479.139 94H466.517V91.8516L475.393 81.9016H467.041V79.7532H478.696V81.9016L469.82 91.8516H479.139V94Z" fill="white"/>
<path d="M471 0H480V60H471V0Z" fill="#40E0D0"/>
<path fill-rule="evenodd" clip-rule="evenodd" d="M395.5 15C407.926 15 418 25.0736 418 37.5C418 39.0411 417.845 40.546 417.55 42H382.77C384.623 47.2431 389.622 51 395.5 51C398.714 51 401.664 49.8751 403.981 48H415.402C411.63 55.1361 404.134 60 395.5 60C383.074 60 373 49.9264 373 37.5C373 25.0736 383.074 15 395.5 15ZM395.5 24C389.622 24 384.623 27.7569 382.77 33H408.23C406.377 27.7569 401.378 24 395.5 24Z" fill="#40E0D0"/>
<path fill-rule="evenodd" clip-rule="evenodd" d="M467 60H458V55.501C454.239 58.3256 449.565 60 444.5 60C432.074 60 422 49.9264 422 37.5C422 25.0736 432.074 15 444.5 15C456.926 15 467 25.0736 467 37.5V60ZM458 37.5C458 30.0442 451.956 24 444.5 24C437.044 24 431 30.0442 431 37.5C431 44.9558 437.044 51 444.5 51C448.228 51 451.603 49.4889 454.046 47.0459L458 51V37.5Z" fill="#40E0D0"/>
<path fill-rule="evenodd" clip-rule="evenodd" d="M339 0C355.569 0 369 13.4315 369 30C369 46.5685 355.569 60 339 60H309V0H339ZM318 51H339C350.598 51 360 41.598 360 30C360 18.402 350.598 9 339 9H318V51Z" fill="#40E0D0"/>
<path d="M272 19.4987C275.76 16.674 280.434 15 285.5 15C290.565 15 295.239 16.6741 299 19.499L293.6 26.6995C291.344 25.0045 288.539 24 285.5 24C278.044 24 272 30.0442 272 37.5V60H263V15H272V19.4987Z" fill="white"/>
<path d="M191.5 47.7127L204.312 15H214L196.312 60H186.688L169 15H178.688L191.5 47.7127Z" fill="white"/>
<path fill-rule="evenodd" clip-rule="evenodd" d="M236.5 15C248.926 15 259 25.0736 259 37.5C259 39.0411 258.845 40.546 258.55 42H223.77C225.623 47.2431 230.622 51 236.5 51C239.714 51 242.664 49.8751 244.981 48H256.402C252.63 55.1361 245.134 60 236.5 60C224.074 60 214 49.9264 214 37.5C214 25.0736 224.074 15 236.5 15ZM236.5 24C230.622 24 225.623 27.7569 223.77 33H249.23C247.377 27.7569 242.378 24 236.5 24Z" fill="white"/>
<path d="M165 9H129V25H165V34H129V51H165V60H120V0H165V9Z" fill="white"/>
<path d="M0 18C0 8.05888 8.05888 0 18 0H82C91.9411 0 100 8.05888 100 18V82C100 91.9411 91.9411 100 82 100H18C8.05888 100 0 91.9411 0 82V18Z" fill="white"/>
<path d="M61.9117 31.9789C63.5988 30.2918 66.334 30.2918 68.0211 31.9789C69.7082 33.666 69.7082 36.4013 68.0211 38.0883C66.334 39.7754 63.5988 39.7754 61.9117 38.0883C60.2246 36.4013 60.2246 33.666 61.9117 31.9789Z" fill="#40E0D0"/>
<path fill-rule="evenodd" clip-rule="evenodd" d="M51.4313 20.4802C59.1173 18.7385 67.0002 18.0583 74.8599 18.453C76.9159 18.5563 78.208 18.7459 79.7308 20.2692C81.2529 21.7919 81.4427 23.0837 81.546 25.1391C81.941 32.9992 81.2614 40.8823 79.5197 48.5687C78.9697 50.9962 78.4203 52.1267 76.6761 53.8709L41.547 89L11 58.453L46.1291 23.3239C47.8733 21.5797 49.0038 21.0303 51.4313 20.4802ZM41.547 76.7812L69.5484 48.7798C70.6572 47.671 71.0245 47.0294 71.3487 45.4889C72.3634 40.6679 72.9163 35.7667 73.0034 30.8518C73.0701 27.0889 72.9111 26.9299 69.1482 26.9966C64.2333 27.0837 59.3321 27.6366 54.5111 28.6513C52.9706 28.9755 52.329 29.3428 51.2202 30.4516L23.2188 58.453L41.547 76.7812Z" fill="#40E0D0"/>
</svg>
